<?xml version="1.0" standalone="no"?>
<!DOCTYPE svg PUBLIC "-//W3C//DTD SVG 20010904//EN"
 "http://www.w3.org/TR/2001/REC-SVG-20010904/DTD/svg10.dtd">
<svg version="1.0" xmlns="http://www.w3.org/2000/svg"
 width="16.000000pt" height="16.000000pt" viewBox="0 0 16.000000 16.000000"
 preserveAspectRatio="xMidYMid meet">

<g transform="translate(0.000000,16.000000) scale(0.100000,-0.100000)"
fill="#000000" stroke="none">
<path d="M0 80 l0 -80 80 0 80 0 0 80 0 80 -80 0 -80 0 0 -80z m65 40 c4 -7
-2 -9 -19 -4 -34 8 -34 -9 1 -34 17 -13 24 -25 20 -36 -7 -17 -42 -22 -51 -7
-4 5 2 7 13 4 19 -5 43 18 24 24 -27 9 -46 31 -40 47 7 18 42 22 52 6z m80
-40 c0 -42 -2 -45 -27 -48 -27 -3 -28 -2 -28 48 0 50 1 51 28 48 25 -3 27 -6
27 -48z"/>
<path d="M100 106 c0 -10 9 -16 21 -16 24 0 21 23 -4 28 -10 2 -17 -3 -17 -12z"/>
<path d="M107 74 c-14 -15 -6 -34 14 -34 14 0 19 5 17 17 -3 18 -20 27 -31 17z"/>
</g>
</svg>
